<svg width="34" height="32" viewBox="0 0 34 32" fill="none" xmlns="http://www.w3.org/2000/svg">
<path d="M31.8071 18.3741C32.2896 18.8775 33.0937 18.8991 33.6032 18.4223C34.1126 17.9455 34.1344 17.1509 33.652 16.6474L18.0731 0.392166C17.5907 -0.111271 16.7865 -0.132858 16.2771 0.34395C15.7677 0.820757 15.7458 1.6154 16.2283 2.11884L31.8071 18.3741Z" fill="white"/>
<path d="M2.19287 18.5335C1.71038 19.0369 0.90627 19.0585 0.396837 18.5817C-0.112596 18.1049 -0.134441 17.3102 0.348046 16.8068L15.9269 0.551556C16.4093 0.0481205 17.2135 0.0265331 17.7229 0.50334C18.2323 0.980146 18.2542 1.77479 17.7717 2.27823L2.19287 18.5335Z" fill="white"/>
<path d="M15.355 30.4306C15.355 31.2974 16.066 32 16.9431 32C17.8201 32 18.5311 31.2974 18.5311 30.4306V2.18194C18.5311 1.3152 17.8201 0.61257 16.9431 0.61257C16.066 0.61257 15.355 1.3152 15.355 2.18194V30.4306Z" fill="white"/>
</svg>
