<svg width="34" height="32" viewBox="0 0 34 32" fill="none" xmlns="http://www.w3.org/2000/svg">
<path d="M31.8071 13.6259C32.2896 13.1225 33.0937 13.1009 33.6032 13.5777C34.1126 14.0545 34.1344 14.8491 33.652 15.3526L18.0731 31.6078C17.5907 32.1113 16.7865 32.1329 16.2771 31.656C15.7677 31.1792 15.7458 30.3846 16.2283 29.8812L31.8071 13.6259Z" fill="black"/>
<path d="M2.19287 13.4665C1.71038 12.9631 0.90627 12.9415 0.396837 13.4183C-0.112596 13.8951 -0.134441 14.6898 0.348046 15.1932L15.9269 31.4484C16.4093 31.9519 17.2135 31.9735 17.7229 31.4967C18.2323 31.0199 18.2542 30.2252 17.7717 29.7218L2.19287 13.4665Z" fill="black"/>
<path d="M15.355 1.56937C15.355 0.702632 16.066 0 16.9431 0C17.8201 0 18.5311 0.702632 18.5311 1.56937V29.8181C18.5311 30.6848 17.8201 31.3874 16.9431 31.3874C16.066 31.3874 15.355 30.6848 15.355 29.8181V1.56937Z" fill="black"/>
</svg>
