<svg width="17" height="17" viewBox="0 0 17 17" fill="none" xmlns="http://www.w3.org/2000/svg">
<path d="M7.9679 16.6914C7.76779 16.4857 7.66301 16.2239 7.65355 15.9059C7.64482 15.588 7.7405 15.3262 7.94061 15.1205L13.2889 9.62211H1.09149C0.782237 9.62211 0.522825 9.51439 0.313259 9.29894C0.10442 9.08425 0 8.81793 0 8.5C0 8.18207 0.10442 7.91538 0.313259 7.69993C0.522825 7.48524 0.782237 7.37789 1.09149 7.37789H13.2889L7.94061 1.87954C7.7405 1.67382 7.64482 1.41199 7.65355 1.09406C7.66301 0.776127 7.76779 0.514301 7.9679 0.30858C8.168 0.10286 8.42269 0 8.73194 0C9.0412 0 9.29588 0.10286 9.49599 0.30858L16.6998 7.71452C16.809 7.80803 16.8865 7.92473 16.9323 8.06462C16.9774 8.20526 17 8.35038 17 8.5C17 8.64961 16.9774 8.78988 16.9323 8.92079C16.8865 9.0517 16.809 9.17327 16.6998 9.28548L9.49599 16.6914C9.29588 16.8971 9.0412 17 8.73194 17C8.42269 17 8.168 16.8971 7.9679 16.6914Z" fill="#F2D66B"/>
</svg>
