<svg width="44" height="44" viewBox="0 0 44 44" fill="none" xmlns="http://www.w3.org/2000/svg">
<path d="M22 2L22.0039 21.9803L29.6537 3.5224L22.0111 21.9834L36.1421 7.85787L22.0166 21.9889L40.4776 14.3463L22.0197 21.9961L42 22L22.0197 22.0039L40.4776 29.6537L22.0166 22.0111L36.1421 36.1421L22.0111 22.0166L29.6537 40.4776L22.0039 22.0197L22 42L21.9961 22.0197L14.3463 40.4776L21.9889 22.0166L7.85787 36.1421L21.9834 22.0111L3.5224 29.6537L21.9803 22.0039L2 22L21.9803 21.9961L3.5224 14.3463L21.9834 21.9889L7.85787 7.85787L21.9889 21.9834L14.3463 3.5224L21.9961 21.9803L22 2Z" stroke="#F2D66B" stroke-width="3.09677" stroke-linejoin="round"/>
</svg>
