<svg width="38" height="38" viewBox="0 0 38 38" fill="none" xmlns="http://www.w3.org/2000/svg">
<path d="M18.8022 0.346274C18.8357 0.118385 19.1644 0.118387 19.1979 0.346276L20.3989 8.51776C20.4277 8.71329 20.6924 8.7531 20.7774 8.57467L24.3269 1.12142C24.426 0.913481 24.7401 1.01014 24.7052 1.23779L23.4508 9.40254C23.4208 9.59783 23.662 9.71373 23.7957 9.56827L29.3788 3.49471C29.5347 3.32517 29.8064 3.50996 29.7061 3.71722L26.1068 11.1501C26.0208 11.3279 26.217 11.5096 26.3876 11.41L33.5092 7.25578C33.708 7.13977 33.9132 7.39636 33.7563 7.56484L28.1311 13.6049C27.9965 13.7494 28.1304 13.9807 28.3227 13.936L36.3508 12.0709C36.575 12.0188 36.6953 12.3244 36.4957 12.4391L29.344 16.5486C29.173 16.647 29.2325 16.9074 29.4294 16.9215L37.6503 17.5123C37.8799 17.5288 37.9045 17.8563 37.68 17.9069L29.6381 19.7199C29.4457 19.7633 29.4256 20.0297 29.6095 20.1014L37.2923 23.0961C37.5067 23.1797 37.4334 23.4999 37.204 23.4819L28.9875 22.8375C28.7907 22.8221 28.6929 23.0707 28.8475 23.1935L35.3081 28.3257C35.4883 28.4689 35.3238 28.7532 35.1098 28.6681L27.4496 25.6244C27.2661 25.5515 27.0991 25.7603 27.2107 25.9232L31.8749 32.7359C32.005 32.9258 31.7638 33.149 31.5845 33.0046L25.1605 27.8329C25.0066 27.709 24.7854 27.8595 24.8441 28.0481L27.2982 35.9351C27.3666 36.155 27.0703 36.2973 26.9414 36.1064L22.3238 29.2666C22.2132 29.1029 21.9574 29.1816 21.958 29.3792L21.9849 37.6395C21.9856 37.8698 21.6605 37.9187 21.5935 37.6983L19.1914 29.7978C19.1339 29.6087 18.8662 29.6087 18.8087 29.7978L16.4066 37.6983C16.3396 37.9187 16.0145 37.8698 16.0152 37.6395L16.0421 29.3792C16.0427 29.1816 15.7869 29.1028 15.6763 29.2666L11.0586 36.1064C10.9297 36.2973 10.6334 36.155 10.7019 35.9351L13.156 28.0481C13.2146 27.8595 12.9934 27.709 12.8396 27.8329L6.41559 33.0046C6.23624 33.149 5.99507 32.9258 6.12514 32.7358L10.7894 25.9232C10.901 25.7603 10.7341 25.5515 10.5506 25.6244L2.89016 28.6682C2.67623 28.7532 2.51166 28.4689 2.69191 28.3257L9.15261 23.1935C9.30714 23.0707 9.20933 22.8221 9.01257 22.8375L0.79604 23.4819C0.566588 23.4999 0.493325 23.1797 0.707765 23.0961L8.39053 20.1014C8.57438 20.0297 8.55437 19.7633 8.36188 19.7199L0.320035 17.9069C0.0955201 17.8563 0.120129 17.5288 0.349688 17.5123L8.57077 16.9215C8.7676 16.9074 8.82718 16.647 8.65608 16.5486L1.50439 12.4391C1.30482 12.3244 1.42509 12.0188 1.64929 12.0709L9.67743 13.936C9.86971 13.9807 10.0036 13.7494 9.86905 13.6049L4.24374 7.56484C4.08684 7.39637 4.29201 7.13978 4.49087 7.25578L11.6124 11.41C11.783 11.5096 11.9793 11.3279 11.8932 11.1501L8.29398 3.71722C8.19362 3.50996 8.46539 3.32517 8.62123 3.4947L14.2043 9.56827C14.3381 9.71373 14.5793 9.59784 14.5493 9.40255L13.2949 1.23779C13.2599 1.01014 13.5741 0.91348 13.6732 1.12142L17.2227 8.57467C17.3077 8.7531 17.5724 8.71329 17.6011 8.51775L18.8022 0.346274Z" fill="#3F75E0"/>
</svg>
