<svg width="40" height="40" viewBox="0 0 40 40" fill="none" xmlns="http://www.w3.org/2000/svg">
<path fill-rule="evenodd" clip-rule="evenodd" d="M39.9985 19.9985C39.9985 19.9985 40.2357 10.8085 34.7135 5.28641C29.1915 -0.235609 20.0015 0.00148272 20.0015 0.00148272C20.0015 0.00148272 20.0002 0.0488163 20 0.138705C20 0.100742 19.9996 0.0703717 19.9994 0.0479457C19.9991 0.0172791 19.9985 0.00148272 19.9985 0.00148272C19.9985 0.00148272 10.8085 -0.235609 5.28641 5.28641C-0.235609 10.8085 0.00148272 19.9985 0.00148272 19.9985C0.00148272 19.9985 9.19158 20.2356 14.7135 14.7135C19.7609 9.66632 19.9969 1.55465 20 0.197112C20.0033 1.55465 20.2393 9.66632 25.2865 14.7135C30.8085 20.2356 39.9985 19.9985 39.9985 19.9985ZM5.28641 34.7135C-0.235609 29.1915 0.00148272 20.0015 0.00148272 20.0015C0.00148272 20.0015 9.19158 19.7644 14.7135 25.2865C19.7609 30.3337 19.9969 38.4454 20 39.803C20.0033 38.4454 20.2393 30.3337 25.2865 25.2865C30.8085 19.7644 39.9985 20.0015 39.9985 20.0015C39.9985 20.0015 40.2357 29.1915 34.7135 34.7135C29.1915 40.2356 20.0015 39.9985 20.0015 39.9985C20.0015 39.9985 20.0002 39.9511 20 39.8613C19.9998 39.9511 19.9985 39.9985 19.9985 39.9985C19.9985 39.9985 10.8085 40.2356 5.28641 34.7135Z" fill="#7C6BE3"/>
</svg>
