<svg width="59" height="59" viewBox="0 0 59 59" fill="none" xmlns="http://www.w3.org/2000/svg">
<path d="M29.5 2L29.5053 29.4729L40.0239 4.0933L29.5153 29.4772L48.9454 10.0546L29.5228 29.4847L54.9067 18.9761L29.5271 29.4947L57 29.5L29.5271 29.5053L54.9067 40.0239L29.5228 29.5153L48.9454 48.9454L29.5153 29.5228L40.0239 54.9067L29.5053 29.5271L29.5 57L29.4947 29.5271L18.9761 54.9067L29.4847 29.5228L10.0546 48.9454L29.4772 29.5153L4.0933 40.0239L29.4729 29.5053L2 29.5L29.4729 29.4947L4.0933 18.9761L29.4772 29.4847L10.0546 10.0546L29.4847 29.4772L18.9761 4.0933L29.4947 29.4729L29.5 2Z" stroke="white" stroke-width="3" stroke-linejoin="round"/>
</svg>
