<svg width="16" height="16" viewBox="0 0 16 16" fill="none" xmlns="http://www.w3.org/2000/svg">
<g clip-path="url(#clip0_611_4799)">
<path fill-rule="evenodd" clip-rule="evenodd" d="M8 16.0029C12.4183 16.0029 16 12.4212 16 8.00293C16 3.58465 12.4183 0.00292969 8 0.00292969C3.58172 0.00292969 0 3.58465 0 8.00293C0 12.4212 3.58172 16.0029 8 16.0029ZM6.70996 11.7055C6.70996 10.9598 7.27667 10.4229 7.9925 10.4229C8.72326 10.4229 9.28996 10.9598 9.28996 11.7055C9.28996 12.4512 8.72326 13.0029 7.9925 13.0029C7.27667 13.0029 6.70996 12.4512 6.70996 11.7055ZM7.46502 3.00293H8.53489C8.97368 3.00293 9.31875 3.37795 9.2823 3.81522L8.88821 8.54395C8.86661 8.80309 8.64998 9.00242 8.38994 9.00242H7.61006C7.35002 9.00242 7.13338 8.8031 7.11178 8.54396L6.71761 3.81523C6.68116 3.37796 7.02623 3.00293 7.46502 3.00293Z" fill="#E36563"/>
</g>
<defs>
<clipPath id="clip0_611_4799">
<rect width="16" height="16" fill="white"/>
</clipPath>
</defs>
</svg>
