<svg width="156" height="118" viewBox="0 0 156 118" fill="none" xmlns="http://www.w3.org/2000/svg">
<path fill-rule="evenodd" clip-rule="evenodd" d="M115.146 98.6832L35.2927 98.0037L35.2664 97.6985C15.9129 96.7247 1.61383 81.0491 1.21519 61.1527C0.81779 41.3185 15.7424 24.7583 35.0724 22.8912C41.0736 10.5858 53.471 2.01392 67.9528 1.72376C84.2888 1.39645 98.3968 11.7052 103.831 26.3748C107.897 24.7495 112.318 23.8166 116.953 23.7238C137.659 23.3089 154.783 39.8213 155.199 60.6053C155.604 80.8151 139.443 97.3691 119.512 98.6498L119.505 98.7203L118.265 98.7098C118.112 98.7147 117.958 98.7187 117.805 98.7217C116.91 98.7397 116.024 98.7265 115.146 98.6832Z" fill="#F2D66B"/>
<path d="M78.4603 27.4749C53.6203 27.4749 33.4603 47.6349 33.4603 72.4749C33.4603 97.3148 53.6203 117.475 78.4603 117.475C103.3 117.475 123.46 97.3148 123.46 72.4749C123.46 47.6349 103.3 27.4749 78.4603 27.4749ZM99.3403 58.0749C98.6653 65.1849 95.7403 82.4649 94.2553 90.4299C93.6253 93.8049 92.3653 94.9299 91.1953 95.0649C88.5853 95.2899 86.6053 93.3549 84.0853 91.6899C80.1253 89.0799 77.8753 87.4599 74.0503 84.9399C69.5953 82.0149 72.4753 80.3949 75.0403 77.7849C75.7153 77.1099 87.2353 66.6249 87.4603 65.6799C87.4915 65.5367 87.4874 65.3881 87.4482 65.247C87.4089 65.1058 87.3359 64.9764 87.2353 64.8699C86.9653 64.6449 86.6053 64.7349 86.2903 64.7799C85.8853 64.8699 79.5853 69.0549 67.3003 77.3349C65.5003 78.5499 63.8803 79.1799 62.4403 79.1348C60.8203 79.0899 57.7603 78.2349 55.4653 77.4699C52.6303 76.5699 50.4253 76.0749 50.6053 74.4999C50.6953 73.6899 51.8203 72.8799 53.9353 72.0249C67.0753 66.3099 75.8053 62.5299 80.1703 60.7299C92.6803 55.5099 95.2453 54.6099 96.9553 54.6099C97.3153 54.6099 98.1703 54.6999 98.7103 55.1499C99.1603 55.5099 99.2953 56.0049 99.3403 56.3649C99.2953 56.6349 99.3853 57.4449 99.3403 58.0749Z" fill="black"/>
</svg>
