<svg width="55" height="55" viewBox="0 0 55 55" fill="none" xmlns="http://www.w3.org/2000/svg">
<path fill-rule="evenodd" clip-rule="evenodd" d="M54.998 27.498C54.998 27.498 55.3241 14.8617 47.7311 7.26881C40.1383 -0.323963 27.502 0.00203874 27.502 0.00203874C27.502 0.00203874 27.5003 0.0671224 27.5 0.19072C27.5 0.13852 27.4995 0.096761 27.4992 0.0659254C27.4987 0.0237587 27.498 0.00203874 27.498 0.00203874C27.498 0.00203874 14.8617 -0.323963 7.26881 7.26881C-0.323963 14.8617 0.00203874 27.498 0.00203874 27.498C0.00203874 27.498 12.6384 27.8239 20.2311 20.2311C27.1713 13.2912 27.4957 2.13764 27.5 0.27103C27.5046 2.13764 27.829 13.2912 34.7689 20.2311C42.3617 27.8239 54.998 27.498 54.998 27.498ZM7.26881 47.7311C-0.323963 40.1383 0.00203874 27.502 0.00203874 27.502C0.00203874 27.502 12.6384 27.1761 20.2311 34.7689C27.1713 41.7088 27.4957 52.8624 27.5 54.7291C27.5046 52.8624 27.829 41.7088 34.7689 34.7689C42.3617 27.1761 54.998 27.502 54.998 27.502C54.998 27.502 55.3241 40.1383 47.7311 47.7311C40.1383 55.3239 27.502 54.998 27.502 54.998C27.502 54.998 27.5003 54.9328 27.5 54.8093C27.4997 54.9328 27.498 54.998 27.498 54.998C27.498 54.998 14.8617 55.3239 7.26881 47.7311Z" fill="white"/>
</svg>
