<svg width="119" height="114" viewBox="0 0 119 114" fill="none" xmlns="http://www.w3.org/2000/svg">
<path fill-rule="evenodd" clip-rule="evenodd" d="M111.413 35.2373C116.211 31.8379 118.948 27.9149 118.948 23.7373C118.948 10.7586 92.533 0.237305 59.9482 0.237305C27.3634 0.237305 0.948242 10.7586 0.948242 23.7373C0.948242 27.9149 3.68503 31.8379 8.48343 35.2373C3.68503 38.6368 0.948242 42.5597 0.948242 46.7373C0.948242 51.1213 3.96214 55.2249 9.20966 58.7373C3.96214 62.2497 0.948242 66.3533 0.948242 70.7373C0.948242 83.716 27.3634 94.2373 59.9482 94.2373C92.533 94.2373 118.948 83.716 118.948 70.7373C118.948 66.3533 115.934 62.2497 110.687 58.7373C115.934 55.2249 118.948 51.1213 118.948 46.7373C118.948 42.5597 116.211 38.6368 111.413 35.2373Z" fill="#F2D66B"/>
<path d="M72.9482 23.2373C48.0951 23.2373 27.9482 43.3842 27.9482 68.2373C27.9482 93.0904 48.0951 113.237 72.9482 113.237C97.8014 113.237 117.948 93.0904 117.948 68.2373C117.948 43.3842 97.8014 23.2373 72.9482 23.2373ZM61.9326 86.8889H52.8201V57.5639H61.9326V86.8889ZM57.3201 53.9639C54.442 53.9639 52.5811 51.9248 52.5811 49.4029C52.5811 46.8295 54.4982 44.8514 57.4373 44.8514C60.3764 44.8514 62.1764 46.8295 62.2326 49.4029C62.2326 51.9248 60.3764 53.9639 57.3201 53.9639ZM95.2139 86.8889H86.1014V70.6373C86.1014 66.8545 84.7795 64.2857 81.4842 64.2857C78.967 64.2857 77.4717 66.0248 76.8107 67.6982C76.567 68.2936 76.5061 69.1373 76.5061 69.9764V86.8842H67.3889V66.9154C67.3889 63.2545 67.2717 60.1936 67.1498 57.5592H75.067L75.4842 61.6326H75.667C76.867 59.7201 79.8061 56.8982 84.7232 56.8982C90.7186 56.8982 95.2139 60.9154 95.2139 69.5498V86.8889Z" fill="black"/>
</svg>
