<svg width="119" height="114" viewBox="0 0 119 114" fill="none" xmlns="http://www.w3.org/2000/svg">
<path fill-rule="evenodd" clip-rule="evenodd" d="M111.361 35.2373C116.16 31.8379 118.896 27.9149 118.896 23.7373C118.896 10.7586 92.4813 0.237305 59.8965 0.237305C27.3117 0.237305 0.896484 10.7586 0.896484 23.7373C0.896484 27.9149 3.63327 31.8379 8.43167 35.2373C3.63327 38.6368 0.896484 42.5597 0.896484 46.7373C0.896484 51.1213 3.91038 55.2249 9.15791 58.7373C3.91038 62.2497 0.896484 66.3533 0.896484 70.7373C0.896484 83.716 27.3117 94.2373 59.8965 94.2373C92.4813 94.2373 118.896 83.716 118.896 70.7373C118.896 66.3533 115.883 62.2497 110.635 58.7373C115.883 55.2249 118.896 51.1213 118.896 46.7373C118.896 42.5597 116.16 38.6368 111.361 35.2373Z" fill="#F2D66B"/>
<path d="M72.8965 23.2373C48.0434 23.2373 27.8965 43.3842 27.8965 68.2373C27.8965 93.0904 48.0434 113.237 72.8965 113.237C97.7496 113.237 117.896 93.0904 117.896 68.2373C117.896 43.3842 97.7496 23.2373 72.8965 23.2373ZM61.8809 86.8889H52.7684V57.5639H61.8809V86.8889ZM57.2684 53.9639C54.3902 53.9639 52.5293 51.9248 52.5293 49.4029C52.5293 46.8295 54.4465 44.8514 57.3855 44.8514C60.3246 44.8514 62.1246 46.8295 62.1809 49.4029C62.1809 51.9248 60.3246 53.9639 57.2684 53.9639ZM95.1621 86.8889H86.0496V70.6373C86.0496 66.8545 84.7277 64.2857 81.4324 64.2857C78.9152 64.2857 77.4199 66.0248 76.759 67.6982C76.5152 68.2936 76.4543 69.1373 76.4543 69.9764V86.8842H67.3371V66.9154C67.3371 63.2545 67.2199 60.1936 67.098 57.5592H75.0152L75.4324 61.6326H75.6152C76.8152 59.7201 79.7543 56.8982 84.6715 56.8982C90.6668 56.8982 95.1621 60.9154 95.1621 69.5498V86.8889Z" fill="#1656C5"/>
</svg>
