<svg width="163" height="30" viewBox="0 0 163 30" fill="none" xmlns="http://www.w3.org/2000/svg">
<rect y="1.5" width="27" height="27" rx="13.5" fill="black"/>
<path d="M15.4026 23.1136H18.223V6.91357H14.1206C9.99482 6.91357 7.82705 9.03473 7.82705 12.1582C7.82705 14.6523 9.01583 16.1208 11.137 17.6359L7.4541 23.1136H10.5076L14.6101 16.9832L13.1882 16.0275C11.4633 14.8621 10.6242 13.953 10.6242 11.995C10.6242 10.2701 11.8363 9.10465 14.1439 9.10465H15.4026V23.1136Z" fill="white"/>
<path d="M34.2159 4.95543V25H37.7057V7.66649H43.9354V25H47.4251V4.95543H34.2159ZM53.4707 10.4929H50.2982V29.182H53.7303V23.2984C54.5955 24.5962 55.8645 25.2884 57.3354 25.2884C60.681 25.2884 62.9883 22.6062 62.9883 17.732C62.9883 12.8867 60.7387 10.2045 57.5085 10.2045C55.8934 10.2045 54.5667 10.9544 53.6438 12.3676L53.4707 10.4929ZM56.4702 22.5773C54.6532 22.5773 53.7303 21.1065 53.7303 17.7609C53.7303 14.3865 54.7109 12.9156 56.6433 12.9156C58.5179 12.9156 59.4408 14.3865 59.4408 17.732C59.4408 21.1065 58.4602 22.5773 56.4702 22.5773ZM75.9855 15.1075C75.9855 11.5889 74.1973 10.2622 70.5634 10.2622C68.2849 10.2622 66.4968 10.9832 65.4585 11.5889V14.4442C66.3814 13.752 68.4003 13.0021 70.1596 13.0021C71.8035 13.0021 72.5534 13.5789 72.5534 15.1363V15.9439H72.0054C66.7563 15.9439 64.4202 17.6744 64.4202 20.6162C64.4202 23.5579 66.2084 25.2019 68.8617 25.2019C70.8806 25.2019 71.7459 24.5385 72.4092 23.8464H72.5534C72.5822 24.2213 72.6976 24.7116 72.813 25H76.1585C76.0432 23.8175 75.9855 22.635 75.9855 21.4525V15.1075ZM72.5534 21.5391C72.1208 22.1736 71.3132 22.6927 70.1019 22.6927C68.6599 22.6927 67.9388 21.8275 67.9388 20.5296C67.9388 18.828 69.1213 18.2223 72.0631 18.2223H72.5534V21.5391ZM87.2531 25H91.1467L85.638 17.1841L90.4833 10.4929H87.0224L82.1771 17.1841V10.4929H78.745V25H82.1771V17.8762L87.2531 25ZM102.512 13.204V10.4929H91.0047V13.204H95.0425V25H98.4746V13.204H102.512ZM104.544 10.4929V25H107.515L112.822 16.0304V25H116.167V10.4929H113.197L107.89 19.4625V10.4929H104.544ZM127.557 25H131.451L125.942 17.1841L130.788 10.4929H127.327L122.481 17.1841V10.4929H119.049V25H122.481V17.8762L127.557 25ZM134.471 29.4704C137.672 29.4704 138.855 27.1919 139.835 24.2213L144.363 10.4929H141.047L137.845 21.3949L134.644 10.4929H131.039L136.028 25.6345C135.653 26.3267 135.105 26.7593 134.154 26.7593C133.519 26.7593 132.971 26.5574 132.596 26.1825V28.9801C132.596 28.9801 133.115 29.4704 134.471 29.4704ZM158.038 25H161.384L161.326 10.4929H156.625L153.481 20.1547L150.655 10.4929H145.665V25H148.578V14.1557L151.722 25H154.52L158.038 14.1557V25Z" fill="black"/>
</svg>
