<svg width="51" height="51" viewBox="0 0 51 51" fill="none" xmlns="http://www.w3.org/2000/svg">
<path d="M25.0054 1.36569C25.0891 0.79597 25.911 0.795967 25.9947 1.36569L27.316 10.3548C27.3878 10.8437 28.0496 10.9432 28.2621 10.4971L32.1667 2.29833C32.4142 1.77847 33.1997 2.02011 33.1123 2.58924L31.7321 11.5728C31.6571 12.061 32.2601 12.3508 32.5944 11.9871L38.7368 5.30517C39.1264 4.88134 39.8058 5.34332 39.5549 5.86146L35.5936 14.0421C35.3784 14.4865 35.8691 14.9407 36.2955 14.6919L44.1324 10.1204C44.6295 9.83037 45.1425 10.4718 44.7502 10.893L38.5575 17.5425C38.2211 17.9036 38.5558 18.4819 39.0365 18.3703L47.8735 16.3172C48.434 16.187 48.7347 16.9511 48.2358 17.2378L40.3613 21.7626C39.9336 22.0084 40.0825 22.6595 40.5746 22.6949L49.6258 23.3453C50.1997 23.3865 50.2612 24.2052 49.6999 24.3318L40.8454 26.328C40.3641 26.4365 40.3141 27.1025 40.7737 27.2817L49.2332 30.5792C49.7693 30.7882 49.5862 31.5885 49.0125 31.5435L39.967 30.8342C39.4751 30.7956 39.2306 31.4172 39.6169 31.7241L46.73 37.3746C47.1807 37.7326 46.7692 38.4433 46.2344 38.2308L37.8035 34.8809C37.3448 34.6986 36.9275 35.2207 37.2063 35.628L42.3405 43.127C42.6656 43.6019 42.0627 44.1599 41.6143 43.7989L34.5461 38.1085C34.1614 37.7988 33.6084 38.1749 33.7551 38.6465L36.4557 47.3256C36.6267 47.8753 35.886 48.2311 35.5638 47.7539L30.4841 40.2297C30.2076 39.8202 29.568 40.017 29.5697 40.5111L29.5992 49.5987C29.6011 50.1745 28.7883 50.2967 28.6208 49.7458L25.9784 41.055C25.8347 40.5823 25.1654 40.5823 25.0217 41.055L22.3793 49.7458C22.2118 50.2967 21.399 50.1745 21.4009 49.5987L21.4304 40.5111C21.4321 40.017 20.7925 39.8202 20.516 40.2297L15.4362 47.7539C15.1141 48.2311 14.3733 47.8753 14.5444 47.3256L17.245 38.6465C17.3917 38.1749 16.8387 37.7988 16.454 38.1085L9.38576 43.7989C8.93738 44.1598 8.33445 43.6019 8.65964 43.1269L13.7938 35.628C14.0727 35.2207 13.6554 34.6986 13.1966 34.8809L4.7656 38.2308C4.23079 38.4433 3.81936 37.7326 4.26998 37.3747L11.3832 31.7241C11.7695 31.4172 11.525 30.7956 11.0331 30.8342L1.9875 31.5435C1.41387 31.5885 1.23071 30.7882 1.76681 30.5792L10.2263 27.2817C10.6859 27.1025 10.6359 26.4365 10.1547 26.328L1.30009 24.3318C0.738806 24.2052 0.800326 23.3865 1.37422 23.3453L10.4256 22.6949C10.9177 22.6595 11.0666 22.0084 10.6389 21.7626L2.76436 17.2378C2.26543 16.9511 2.56612 16.187 3.12662 16.3172L11.9637 18.3703C12.4444 18.4819 12.779 17.9036 12.4427 17.5425L6.24988 10.8931C5.85762 10.4719 6.37055 9.83039 6.8677 10.1204L14.7046 14.6919C15.131 14.9407 15.6217 14.4865 15.4065 14.0421L11.4452 5.86146C11.1943 5.34332 11.8737 4.88134 12.2633 5.30517L18.4057 11.9871C18.74 12.3508 19.343 12.0611 19.268 11.5728L17.8878 2.58924C17.8004 2.02012 18.5859 1.77847 18.8334 2.29833L22.738 10.4971C22.9505 10.9432 23.6123 10.8437 23.6841 10.3548L25.0054 1.36569Z" fill="white"/>
</svg>
