<svg width="32" height="33" viewBox="0 0 32 33" fill="none" xmlns="http://www.w3.org/2000/svg">
<path d="M15.9995 1.30005C7.60907 1.30005 0.799469 8.10965 0.799469 16.5C0.799469 24.8904 7.60907 31.7 15.9995 31.7C24.3899 31.7 31.1995 24.8904 31.1995 16.5C31.1995 8.10965 24.3899 1.30005 15.9995 1.30005ZM23.0523 11.636C22.8243 14.0376 21.8363 19.8744 21.3347 22.5648C21.1219 23.7048 20.6963 24.0848 20.3011 24.1304C19.4195 24.2064 18.7507 23.5528 17.8995 22.9904C16.5619 22.1088 15.8019 21.5616 14.5099 20.7104C13.0051 19.7225 13.9779 19.1752 14.8443 18.2936C15.0723 18.0656 18.9635 14.524 19.0395 14.2048C19.05 14.1565 19.0486 14.1063 19.0354 14.0586C19.0221 14.011 18.9974 13.9672 18.9635 13.9312C18.8723 13.8552 18.7507 13.8856 18.6443 13.9008C18.5075 13.9312 16.3795 15.3448 12.2299 18.1416C11.6219 18.552 11.0747 18.7648 10.5883 18.7496C10.0411 18.7344 9.00747 18.4456 8.23227 18.1872C7.27467 17.8832 6.52987 17.716 6.59067 17.184C6.62107 16.9104 7.00107 16.6368 7.71547 16.348C12.1539 14.4176 15.1027 13.1408 16.5771 12.5328C20.8027 10.7696 21.6691 10.4656 22.2467 10.4656C22.3683 10.4656 22.6571 10.496 22.8395 10.648C22.9915 10.7696 23.0371 10.9368 23.0523 11.0584C23.0371 11.1496 23.0675 11.4232 23.0523 11.636Z" fill="black"/>
</svg>
