<svg width="156" height="118" viewBox="0 0 156 118" fill="none" xmlns="http://www.w3.org/2000/svg">
<path fill-rule="evenodd" clip-rule="evenodd" d="M115.094 98.6832L35.241 98.0037L35.2147 97.6985C15.8611 96.7247 1.5621 81.0491 1.16346 61.1527C0.766063 41.3185 15.6906 24.7583 35.0207 22.8912C41.0218 10.5858 53.4192 2.01392 67.901 1.72376C84.2371 1.39645 98.345 11.7052 103.779 26.3748C107.846 24.7495 112.267 23.8166 116.901 23.7238C137.608 23.3089 154.731 39.8213 155.148 60.6053C155.552 80.8151 139.391 97.3691 119.461 98.6498L119.453 98.7203L118.214 98.7098C118.06 98.7147 117.907 98.7187 117.753 98.7217C116.859 98.7397 115.972 98.7265 115.094 98.6832Z" fill="#F2D66B"/>
<path d="M78.4086 27.4749C53.5686 27.4749 33.4086 47.6349 33.4086 72.4749C33.4086 97.3148 53.5686 117.475 78.4086 117.475C103.249 117.475 123.409 97.3148 123.409 72.4749C123.409 47.6349 103.249 27.4749 78.4086 27.4749ZM99.2886 58.0749C98.6136 65.1849 95.6886 82.4649 94.2036 90.4299C93.5736 93.8049 92.3136 94.9299 91.1436 95.0649C88.5336 95.2899 86.5536 93.3549 84.0336 91.6899C80.0736 89.0799 77.8236 87.4599 73.9986 84.9399C69.5436 82.0149 72.4236 80.3949 74.9886 77.7849C75.6636 77.1099 87.1836 66.6249 87.4086 65.6799C87.4398 65.5367 87.4357 65.3881 87.3965 65.247C87.3572 65.1058 87.2842 64.9764 87.1836 64.8699C86.9136 64.6449 86.5536 64.7349 86.2386 64.7799C85.8336 64.8699 79.5336 69.0549 67.2486 77.3349C65.4486 78.5499 63.8286 79.1799 62.3886 79.1348C60.7686 79.0899 57.7086 78.2349 55.4136 77.4699C52.5786 76.5699 50.3736 76.0749 50.5536 74.4999C50.6436 73.6899 51.7686 72.8799 53.8836 72.0249C67.0236 66.3099 75.7536 62.5299 80.1186 60.7299C92.6286 55.5099 95.1936 54.6099 96.9036 54.6099C97.2636 54.6099 98.1186 54.6999 98.6586 55.1499C99.1086 55.5099 99.2436 56.0049 99.2886 56.3649C99.2436 56.6349 99.3336 57.4449 99.2886 58.0749Z" fill="#1656C5"/>
</svg>
