<svg width="10" height="10" viewBox="0 0 10 10" fill="none" xmlns="http://www.w3.org/2000/svg">
<path fill-rule="evenodd" clip-rule="evenodd" d="M5.00001 0.000976562C5.5523 0.000976562 6.00001 0.448692 6.00001 1.00098V3.95518L8.6484 2.95812C9.16527 2.76353 9.74202 3.02479 9.93661 3.54166C10.1312 4.05853 9.86994 4.63528 9.35307 4.82987L6.5304 5.89255L8.23239 8.44446C8.53883 8.90393 8.41478 9.52483 7.95531 9.83127C7.49584 10.1377 6.87494 10.0137 6.5685 9.55418L5.00001 7.20244L3.43153 9.55418C3.12508 10.0137 2.50419 10.1377 2.04472 9.83127C1.58525 9.52483 1.4612 8.90393 1.76764 8.44446L3.46963 5.89255L0.646958 4.82987C0.130089 4.63528 -0.131169 4.05853 0.063421 3.54166C0.258011 3.02479 0.834763 2.76353 1.35163 2.95812L4.00001 3.95518V1.00098C4.00001 0.448692 4.44773 0.000976562 5.00001 0.000976562Z" fill="#929191"/>
</svg>
