<svg width="121" height="118" viewBox="0 0 121 118" fill="none" xmlns="http://www.w3.org/2000/svg">
<path fill-rule="evenodd" clip-rule="evenodd" d="M110.789 48.9175C122.428 30.1408 118.143 9.43835 101.218 2.67729C88.2833 -2.48983 71.7093 1.98122 59.4181 12.758C47.0749 1.62947 30.1979 -3.05469 17.0696 2.18969C0.144717 8.95075 -4.14039 29.6532 7.49858 48.4299C8.35649 49.8139 9.27696 51.1488 10.2529 52.4317C9.27696 53.7145 8.35649 55.0495 7.49858 56.4335C-4.14039 75.2102 0.144717 95.9126 17.0696 102.674C30.1979 107.918 47.0749 103.234 59.4181 92.1054C71.7093 102.882 88.2833 107.353 101.218 102.186C118.143 95.425 122.428 74.7226 110.789 55.9459C110.039 54.7363 109.242 53.5643 108.401 52.4317C109.242 51.2991 110.039 50.127 110.789 48.9175Z" fill="#F2D66B"/>
<path d="M75.4244 27.4316C50.5712 27.4316 30.4244 47.5785 30.4244 72.4316C30.4244 97.2848 50.5712 117.432 75.4244 117.432C100.277 117.432 120.424 97.2848 120.424 72.4316C120.424 47.5785 100.277 27.4316 75.4244 27.4316ZM92.7306 78.202C92.7306 78.202 96.7103 82.1301 97.69 83.9535C97.7181 83.991 97.7322 84.0285 97.7415 84.0473C98.14 84.7176 98.2337 85.2379 98.0369 85.627C97.7087 86.2738 96.5837 86.5926 96.1994 86.6207H89.1681C88.6806 86.6207 87.6587 86.4941 86.4212 85.641C85.4697 84.9754 84.5322 83.8832 83.6181 82.8191C82.254 81.2348 81.0728 79.866 79.8822 79.866C79.7309 79.8658 79.5806 79.8895 79.4369 79.9363C78.5369 80.227 77.3837 81.5113 77.3837 84.9332C77.3837 86.002 76.54 86.616 75.9447 86.616H72.7244C71.6275 86.616 65.9134 86.2316 60.8509 80.8926C54.654 74.3535 49.0759 61.2379 49.029 61.116C48.6775 60.2676 49.404 59.8129 50.1962 59.8129H57.2978C58.2447 59.8129 58.554 60.3895 58.7697 60.9004C59.0228 61.4957 59.9509 63.8629 61.4744 66.5254C63.9447 70.866 65.4587 72.6285 66.6728 72.6285C66.9004 72.6258 67.124 72.5679 67.3244 72.4598C68.9087 71.5785 68.6134 65.9301 68.5431 64.7582C68.5431 64.5379 68.5384 62.2316 67.7275 61.1254C67.1462 60.3238 66.1572 60.0191 65.5572 59.9066C65.8 59.5715 66.12 59.2998 66.49 59.1145C67.5775 58.5707 69.5369 58.491 71.4822 58.491H72.565C74.6744 58.5191 75.2181 58.6551 75.9822 58.8473C77.529 59.2176 77.5619 60.216 77.4259 63.6332C77.3837 64.6035 77.3415 65.7004 77.3415 66.9941C77.3415 67.2754 77.3275 67.5754 77.3275 67.8941C77.2806 69.6332 77.2244 71.6066 78.4525 72.4176C78.6127 72.518 78.7978 72.5716 78.9869 72.5723C79.4134 72.5723 80.6978 72.5723 84.1759 66.6051C85.2486 64.6844 86.1807 62.6886 86.965 60.6332C87.0353 60.5113 87.2415 60.1363 87.4853 59.991C87.6652 59.8993 87.8646 59.8527 88.0665 59.8551H96.415C97.3244 59.8551 97.9478 59.991 98.065 60.3426C98.2712 60.9004 98.0275 62.602 94.2165 67.7629L92.515 70.0082C89.0603 74.5363 89.0603 74.766 92.7306 78.202Z" fill="black"/>
</svg>
