<svg width="32" height="33" viewBox="0 0 32 33" fill="none" xmlns="http://www.w3.org/2000/svg">
<path d="M15.9995 1.30005C7.60464 1.30005 0.799469 8.10522 0.799469 16.5C0.799469 24.8949 7.60464 31.7 15.9995 31.7C24.3943 31.7 31.1995 24.8949 31.1995 16.5C31.1995 8.10522 24.3943 1.30005 15.9995 1.30005ZM21.8451 18.4491C21.8451 18.4491 23.1894 19.776 23.5203 20.3919C23.5298 20.4045 23.5346 20.4172 23.5377 20.4235C23.6723 20.65 23.704 20.8257 23.6375 20.9571C23.5266 21.1756 23.1466 21.2833 23.0168 21.2928H20.6418C20.4771 21.2928 20.132 21.25 19.714 20.9619C19.3926 20.737 19.0759 20.3681 18.7671 20.0087C18.3064 19.4735 17.9074 19.0112 17.5052 19.0112C17.4541 19.0111 17.4034 19.0191 17.3548 19.035C17.0508 19.1331 16.6613 19.567 16.6613 20.7228C16.6613 21.0838 16.3763 21.2912 16.1752 21.2912H15.0875C14.717 21.2912 12.7869 21.1614 11.0769 19.358C8.98372 17.1492 7.09955 12.719 7.08372 12.6779C6.96497 12.3913 7.21039 12.2377 7.47797 12.2377H9.87672C10.1966 12.2377 10.3011 12.4325 10.3739 12.605C10.4594 12.8061 10.7729 13.6057 11.2875 14.505C12.1219 15.9712 12.6333 16.5665 13.0434 16.5665C13.1203 16.5656 13.1958 16.5461 13.2635 16.5095C13.7986 16.2119 13.6989 14.304 13.6751 13.9081C13.6751 13.8337 13.6736 13.0547 13.3996 12.681C13.2033 12.4103 12.8692 12.3074 12.6666 12.2694C12.7486 12.1562 12.8567 12.0644 12.9816 12.0018C13.349 11.8181 14.0108 11.7912 14.6679 11.7912H15.0336C15.7461 11.8007 15.9298 11.8466 16.1879 11.9115C16.7104 12.0366 16.7215 12.3739 16.6756 13.5281C16.6613 13.8559 16.6471 14.2264 16.6471 14.6634C16.6471 14.7584 16.6423 14.8597 16.6423 14.9674C16.6265 15.5548 16.6075 16.2214 17.0223 16.4953C17.0764 16.5292 17.1389 16.5473 17.2028 16.5475C17.3469 16.5475 17.7807 16.5475 18.9556 14.532C19.3179 13.8832 19.6327 13.2091 19.8976 12.5148C19.9214 12.4736 19.9911 12.347 20.0734 12.2979C20.1341 12.2669 20.2015 12.2511 20.2697 12.252H23.0896C23.3968 12.252 23.6074 12.2979 23.647 12.4166C23.7166 12.605 23.6343 13.1798 22.3471 14.923L21.7723 15.6815C20.6054 17.211 20.6054 17.2885 21.8451 18.4491Z" fill="black"/>
</svg>
