<svg width="121" height="118" viewBox="0 0 121 118" fill="none" xmlns="http://www.w3.org/2000/svg">
<path fill-rule="evenodd" clip-rule="evenodd" d="M110.737 48.9175C122.376 30.1408 118.091 9.43835 101.166 2.67729C88.2315 -2.48983 71.6575 1.98122 59.3663 12.758C47.0231 1.62947 30.1461 -3.05469 17.0179 2.18969C0.092959 8.95075 -4.19215 29.6532 7.44682 48.4299C8.30473 49.8139 9.22521 51.1488 10.2011 52.4317C9.22521 53.7145 8.30473 55.0495 7.44682 56.4335C-4.19215 75.2102 0.092959 95.9126 17.0179 102.674C30.1461 107.918 47.0231 103.234 59.3663 92.1054C71.6575 102.882 88.2315 107.353 101.166 102.186C118.091 95.425 122.376 74.7226 110.737 55.9459C109.988 54.7363 109.19 53.5643 108.349 52.4317C109.19 51.2991 109.988 50.127 110.737 48.9175Z" fill="#F2D66B"/>
<path d="M75.3726 27.4316C50.5194 27.4316 30.3726 47.5785 30.3726 72.4316C30.3726 97.2848 50.5194 117.432 75.3726 117.432C100.226 117.432 120.373 97.2848 120.373 72.4316C120.373 47.5785 100.226 27.4316 75.3726 27.4316ZM92.6788 78.202C92.6788 78.202 96.6585 82.1301 97.6382 83.9535C97.6663 83.991 97.6804 84.0285 97.6897 84.0473C98.0882 84.7176 98.1819 85.2379 97.9851 85.627C97.6569 86.2738 96.5319 86.5926 96.1476 86.6207H89.1163C88.6288 86.6207 87.6069 86.4941 86.3694 85.641C85.4179 84.9754 84.4804 83.8832 83.5663 82.8191C82.2022 81.2348 81.021 79.866 79.8304 79.866C79.6792 79.8658 79.5288 79.8895 79.3851 79.9363C78.4851 80.227 77.3319 81.5113 77.3319 84.9332C77.3319 86.002 76.4882 86.616 75.8929 86.616H72.6726C71.5757 86.616 65.8616 86.2316 60.7991 80.8926C54.6022 74.3535 49.0241 61.2379 48.9772 61.116C48.6257 60.2676 49.3522 59.8129 50.1444 59.8129H57.246C58.1929 59.8129 58.5022 60.3895 58.7179 60.9004C58.971 61.4957 59.8991 63.8629 61.4226 66.5254C63.8929 70.866 65.4069 72.6285 66.621 72.6285C66.8486 72.6258 67.0722 72.5679 67.2726 72.4598C68.8569 71.5785 68.5616 65.9301 68.4913 64.7582C68.4913 64.5379 68.4866 62.2316 67.6757 61.1254C67.0944 60.3238 66.1054 60.0191 65.5054 59.9066C65.7482 59.5715 66.0682 59.2998 66.4382 59.1145C67.5257 58.5707 69.4851 58.491 71.4304 58.491H72.5132C74.6226 58.5191 75.1663 58.6551 75.9304 58.8473C77.4772 59.2176 77.5101 60.216 77.3741 63.6332C77.3319 64.6035 77.2897 65.7004 77.2897 66.9941C77.2897 67.2754 77.2757 67.5754 77.2757 67.8941C77.2288 69.6332 77.1726 71.6066 78.4007 72.4176C78.5609 72.518 78.746 72.5716 78.9351 72.5723C79.3616 72.5723 80.646 72.5723 84.1241 66.6051C85.1968 64.6844 86.1289 62.6886 86.9132 60.6332C86.9835 60.5113 87.1897 60.1363 87.4335 59.991C87.6134 59.8993 87.8128 59.8527 88.0147 59.8551H96.3632C97.2726 59.8551 97.896 59.991 98.0132 60.3426C98.2194 60.9004 97.9757 62.602 94.1647 67.7629L92.4632 70.0082C89.0085 74.5363 89.0085 74.766 92.6788 78.202Z" fill="#1656C5"/>
</svg>
